<?xml version="1.0" encoding="UTF-8" standalone="no"?>
<svg width="100%" height="100%" viewBox="0 0 1700 580" version="1.1" xmlns="http://www.w3.org/2000/svg"><defs><filter id="s"><feDropShadow dx="0" dy="3" stdDeviation="4" flood-opacity="0.2" /></filter><linearGradient id="g" x1="74" y1="510" x2="315" y2="-86" gradientUnits="userSpaceOnUse"><stop offset="0" stop-color="#1477C4"/><stop offset="0.5" stop-color="#1A8CE4"/><stop offset="1" stop-color="#399EED"/></linearGradient></defs><path d="M220,500L80,500L80,360L220,360L220,500ZM460,500L460,440L500,440L500,460L480,460L480,500L460,500ZM400,500L400,480L380,480L380,500L320,500L320,460L300,460L300,480L280,480L280,500L260,500L260,480L240,480L240,460L260,460L260,440L240,440L240,380L260,380L260,400L280,400L280,380L300,380L300,360L320,360L320,340L340,340L340,320L320,320L320,340L280,340L280,320L300,320L300,300L340,300L340,280L360,280L360,260L340,260L340,280L300,280L300,300L260,300L260,360L240,360L240,320L220,320L220,340L200,340L200,320L220,320L220,300L260,300L260,260L240,260L240,280L220,280L220,300L200,300L200,320L180,320L180,300L160,300L160,260L140,260L140,240L220,240L220,260L200,260L200,280L220,280L220,260L240,260L240,200L260,200L260,220L280,220L280,180L240,180L240,140L260,140L260,120L280,120L280,80L340,80L340,160L320,160L320,100L300,100L300,120L280,120L280,140L260,140L260,160L280,160L280,140L300,140L300,180L340,180L340,240L280,240L280,280L300,280L300,260L340,260L340,240L380,240L380,300L360,300L360,320L380,320L380,300L400,300L400,320L420,320L420,300L440,300L440,320L420,320L420,340L380,340L380,380L400,380L400,400L420,400L420,360L440,360L440,340L460,340L460,280L440,280L440,260L460,260L460,240L480,240L480,300L500,300L500,320L480,320L480,340L460,340L460,360L440,360L440,400L420,400L420,420L440,420L440,400L460,400L460,360L500,360L500,380L480,380L480,400L500,400L500,420L460,420L460,440L420,440L420,460L440,460L440,480L420,480L420,500L400,500ZM200,480L200,380L100,380L100,480L200,480ZM180,460L120,460L120,400L180,400L180,460ZM380,460L380,400L360,400L360,460L380,460ZM1400.34,418.648C1440.7,446.261 1472.84,459.761 1502.98,459.761C1539.85,459.761 1567.75,446.568 1581.95,438.591C1583.45,437.67 1583.95,436.75 1583.95,435.523C1583.95,434.602 1583.45,433.682 1582.45,433.682C1581.7,433.682 1580.46,434.295 1578.96,434.909C1561.77,443.5 1542.34,446.875 1529.89,446.875C1517.43,446.875 1479.56,445.341 1425,410.67L1373.93,378.148C1390.38,364.955 1418.03,329.057 1418.03,275.057C1418.03,203.875 1376.18,160 1320.12,160C1251.36,160 1221.97,230.261 1221.97,279.966C1221.97,335.193 1250.37,400.545 1319.38,400.545C1332.58,400.545 1349.52,395.943 1358.49,390.114L1400.34,418.648ZM340,420L340,380L360,380L360,340L340,340L340,360L320,360L320,420L340,420ZM300,420L300,400L280,400L280,420L300,420ZM965.029,396.249L965.212,396.25L965.414,396.249L966.268,396.25C966.427,396.25 966.586,396.248 966.744,396.242C976.108,396.158 984.498,395.33 986.388,395.33C988.381,395.33 997.101,396.25 1009.56,396.25C1012.05,396.25 1013.54,395.636 1013.54,394.102C1013.54,392.875 1012.8,391.955 1011.8,391.955C1009.81,391.955 1004.82,391.648 1000.84,390.42C994.858,388.58 992.865,382.136 992.367,360.659L989.876,237.625C996.602,246.83 1021.27,278.739 1046.68,311.568C1069.85,341.33 1101.48,379.682 1103.73,382.136C1115.93,395.943 1118.18,398.091 1120.42,398.091C1121.91,398.091 1122.16,396.557 1122.16,379.375L1122.66,226.58C1122.66,210.932 1123.16,205.716 1130.38,203.875C1132.87,203.261 1134.62,203.261 1135.62,203.261C1137.11,203.261 1138.11,201.727 1138.11,200.807C1138.11,199.273 1136.36,198.966 1134.12,198.966C1125.15,198.966 1117.93,199.58 1115.43,199.58C1112.94,199.58 1102.48,198.966 1092.52,198.966C1090.02,198.966 1088.28,199.273 1088.28,200.807C1088.28,201.727 1088.53,203.261 1090.02,203.261C1091.77,203.261 1096.75,203.568 1100.74,204.489C1107.46,206.023 1108.71,211.852 1108.96,228.727L1111.2,359.432C1104.47,350.841 1081.06,319.852 1059.38,292.239C1025.5,249.284 993.613,207.557 990.125,203.261C987.883,200.5 984.146,195.284 981.655,195.284C979.911,195.284 978.665,198.045 978.665,208.477L978.665,357.898C978.665,381.523 977.918,388.58 972.437,390.42C970.302,391.23 967.841,391.639 965.912,391.823C964.062,391.639 961.927,391.23 959.791,390.42C955.058,388.58 949.079,385.205 941.107,361.886C927.654,322.307 892.527,214.614 888.541,203.568C886.299,197.739 885.552,194.057 883.309,194.057C881.815,194.057 880.818,195.591 878.078,204.182L826.509,367.409C822.274,380.602 818.038,389.807 808.073,391.341C806.33,391.648 803.091,391.955 801.596,391.955C800.6,391.955 799.603,392.875 799.603,394.102C799.603,395.636 801.098,396.25 803.838,396.25C812.807,396.25 823.768,395.33 826.01,395.33C828.502,395.33 840.46,396.25 845.691,396.25C847.684,396.25 848.93,395.636 848.93,394.102C848.93,392.875 848.432,391.955 846.688,391.955L844.695,391.955C840.958,391.955 837.221,390.114 837.221,384.898C837.221,380.295 838.467,373.852 840.46,367.409L852.916,325.682C853.414,324.148 854.162,323.534 855.158,323.534L905.731,323.534C906.976,323.534 907.226,323.841 907.724,325.068L927.405,384.898C928.899,389.193 926.657,391.341 925.412,391.955C924.415,392.568 923.917,392.568 923.917,393.795C923.917,395.33 927.405,395.33 931.64,395.636C945.414,396.193 960.007,396.245 965.029,396.249ZM615.601,277.886C615.601,208 618,197 620.099,187C622.307,176.479 625.59,171.045 632.815,169.511C635.804,168.898 639.292,168.591 641.036,168.591C642.032,168.591 643.029,167.977 643.029,166.75C643.029,164.909 641.783,164.295 639.043,164.295C631.569,164.295 613.383,165.216 612.137,165.216C610.892,165.216 595.197,164.295 583.986,164.295C581.246,164.295 580,164.909 580,166.75C580,167.977 580.997,168.591 581.993,168.591C584.235,168.591 588.47,168.898 590.463,169.511C598.684,171.659 602.301,176.726 604.176,187C606,197 607.674,205.999 607.674,277.273C607.674,355 606,361 603.428,373.852C601.672,382.632 598.186,389.5 593.204,390.727C590.962,391.341 587.972,391.955 585.73,391.955C584.235,391.955 583.737,392.875 583.737,393.795C583.737,395.636 584.983,396.25 587.723,396.25C591.46,396.25 596.941,395.943 601.923,395.636C606.906,395.636 611.141,395.33 612.137,395.33C619.362,395.33 627.085,395.636 637.548,396.25C648.011,396.557 660.966,397.17 678.903,397.17C692.107,397.17 692.854,395.943 694.598,388.886C696.591,379.989 698.335,361.58 698.335,358.205C698.335,354.83 698.086,353.602 696.84,353.602C695.345,353.602 694.847,355.136 694.598,357.591C693.851,363.42 691.359,371.091 688.121,376C682.142,384.898 671.18,385.205 657.976,385.205C638.545,385.205 632.067,383.057 628.081,378.148C623.597,372.625 615.601,366 615.601,277.886ZM717.427,320.466C717.427,345.625 717.427,366.182 716.181,376.92C715.184,384.591 714.686,389.807 710.451,390.727C708.458,391.034 705.718,391.955 703.725,391.955C702.479,391.955 701.981,393.182 701.981,394.102C701.981,395.636 703.226,396.25 705.469,396.25C708.956,396.25 713.939,395.943 718.174,395.636C722.907,395.33 727.142,395.33 727.641,395.33C730.879,395.33 736.609,395.33 745.827,395.943C754.795,396.25 767.501,396.864 783.943,396.864C792.413,396.864 794.656,396.864 796.15,390.114C797.396,384.591 799.14,366.795 799.14,364.955C799.14,363.114 798.891,360.966 797.645,360.966C796.399,360.966 795.901,361.886 795.403,364.955C794.157,375.386 791.168,379.989 785.438,383.057C779.708,385.818 769.245,385.818 763.515,385.818C741.841,385.818 737.855,382.443 737.357,364.955C737.108,359.739 737.357,329.364 737.357,320.466L737.357,298.682C737.357,297.761 737.606,296.841 738.851,296.841C742.588,296.841 766.006,297.148 771.985,298.068C780.455,299.295 782.448,302.364 783.196,306.045C784.192,309.42 784.192,312.182 784.192,314.636C784.192,316.17 784.691,317.091 785.687,317.091C787.182,317.091 787.68,314.33 787.68,312.182C787.68,310.341 788.178,300.523 788.677,295.307C789.175,286.716 790.42,282.42 790.42,280.886C790.42,279.352 789.922,278.739 789.175,278.739C788.427,278.739 787.431,280.273 785.936,282.114C783.694,284.875 780.455,285.182 775.224,285.795C770.241,286.409 741.343,286.409 738.602,286.409C737.357,286.409 737.357,285.489 737.357,283.648L737.357,212.773C737.357,210.932 737.606,210.011 738.602,210.011C741.094,210.011 766.504,210.318 770.241,210.932C782.199,212.773 784.441,214.614 785.936,218.909C786.933,221.977 787.182,226.273 787.182,228.114C787.182,230.261 787.68,231.489 788.926,231.489C789.922,231.489 790.67,229.955 790.919,228.727C791.417,225.659 791.915,214 792.164,211.545C792.663,204.182 793.908,201.114 793.908,199.273C793.908,198.045 793.659,196.818 792.912,196.818C791.915,196.818 790.919,197.739 789.922,198.045C788.178,198.352 784.192,199.273 779.957,199.58C774.975,199.886 729.135,199.58 727.641,199.58C726.395,199.58 712.195,198.966 702.23,198.966C699.739,198.966 698.742,199.58 698.742,201.114C698.742,202.034 699.739,203.261 700.486,203.261C702.479,203.261 706.216,203.568 707.96,203.875C715.184,205.102 716.43,209.398 716.928,218.295C717.427,226.58 717.427,233.943 717.427,274.443L717.427,320.466ZM1453.34,307.273C1453.34,336.727 1453.34,360.966 1452.09,373.852C1451.09,382.75 1449.85,389.5 1444.87,390.727C1442.62,391.341 1439.63,391.955 1437.39,391.955C1435.9,391.955 1435.4,392.875 1435.4,393.795C1435.4,395.636 1436.64,396.25 1439.38,396.25C1446.86,396.25 1462.55,395.33 1462.8,395.33C1464.05,395.33 1479.74,396.25 1493.44,396.25C1496.18,396.25 1497.43,395.33 1497.43,393.795C1497.43,392.875 1496.93,391.955 1495.44,391.955C1493.19,391.955 1487.71,391.341 1484.23,390.727C1476.75,389.5 1475.26,382.75 1474.51,373.852C1473.27,360.966 1473.27,336.727 1473.27,307.273L1473.27,299.909C1473.27,298.375 1473.76,297.455 1475.01,297.455L1505.65,298.068C1507.15,298.068 1507.89,298.682 1508.89,299.909C1513.87,307.886 1525.58,328.443 1536.05,345.318C1550.25,368.33 1558.96,383.364 1569.68,390.42C1576.15,394.716 1582.38,396.25 1596.33,396.25L1614.02,396.25C1618.51,396.25 1620,395.636 1620,393.795C1620,392.875 1619,391.955 1617.76,391.955C1616.26,391.955 1612.78,391.955 1608.04,391.034C1601.81,389.807 1591.1,386.432 1577.65,368.943C1563.2,349.92 1546.26,322.614 1525.83,290.398C1548.25,264.932 1555.98,242.227 1555.98,219.523C1555.98,198.352 1545.01,183.318 1538.79,177.795C1525.58,166.136 1508.89,164.295 1493.19,164.295C1485.47,164.295 1466.54,165.216 1463.8,165.216C1462.55,165.216 1446.86,164.295 1435.65,164.295C1432.91,164.295 1431.66,164.909 1431.66,166.75C1431.66,167.977 1432.66,168.591 1433.65,168.591C1435.9,168.591 1440.13,168.898 1442.12,169.511C1450.35,171.659 1452.34,176.568 1452.84,187C1453.34,196.818 1453.34,205.409 1453.34,253.273L1453.34,307.273ZM1245.63,271.375C1245.63,204.182 1276.77,170.432 1318.38,170.432C1357.74,170.432 1394.11,210.011 1394.11,283.648C1394.11,372.932 1347.78,388.886 1325.35,388.886C1280.51,388.886 1245.63,342.864 1245.63,271.375ZM160,340L120,340L120,320L160,320L160,340ZM80,340L80,300L100,300L100,340L80,340ZM858.148,312.795C857.4,312.795 857.151,312.182 857.4,310.955L877.829,239.466C879.074,235.477 880.32,235.477 881.566,239.466L903.24,310.955C903.489,312.182 903.489,312.795 902.492,312.795L858.148,312.795ZM120,300L120,280L140,280L140,300L120,300ZM1473.27,179.636C1473.27,177.795 1474.01,176.568 1475.26,175.955C1477.75,175.034 1484.48,174.114 1491.95,174.114C1518.61,174.114 1535.05,197.125 1535.05,235.477C1535.05,258.795 1528.57,275.364 1519.85,282.727C1514.12,287.636 1507.15,288.557 1501.17,288.557C1490.2,288.557 1478.75,286.409 1475.01,283.648C1473.76,282.727 1473.27,281.5 1473.27,279.966L1473.27,179.636ZM400,280L400,240L440,240L440,260L420,260L420,280L400,280ZM80,280L80,260L100,260L100,240L120,240L120,260L100,260L100,280L80,280ZM220,220L80,220L80,80L220,80L220,220ZM500,220L360,220L360,80L500,80L500,220ZM320,220L320,200L300,200L300,220L320,220ZM480,200L480,100L380,100L380,200L480,200ZM200,200L200,100L100,100L100,200L200,200ZM460,180L400,180L400,120L460,120L460,180ZM180,180L120,180L120,120L180,120L180,180ZM240,120L240,100L260,100L260,120L240,120Z" fill="url(#g)" filter="url(#s)"/></svg>
